# AST/ASF file generated using VICON BodyLanguage
# -----------------------------------------------
:version 1.10
:name VICON
:units
  mass 1.0
  length 0.45
  angle deg
:documentation
   .ast/.asf automatically generated from VICON data using
   VICON BodyBuilder and BodyLanguage model FoxedUp or BRILLIANT.MOD
:root
   order TX TY TZ RX RY RZ
   axis XYZ
   position 0 0 0  
   orientation 0 0 0 
:bonedata
  begin
     id 1 
     name lhipjoint
     direction 0.567725 -0.736092 0.368589 
     length 2.42353 
     axis 0 0 0  XYZ
  end
  begin
     id 2 
     name lfemur
     direction 0.34202 -0.939693 0  
     length 7.24894  
     axis 0 0 20  XYZ
    dof rx ry rz
    limits (-160.0 20.0)
           (-70.0 70.0)
           (-60.0 70.0)
  end
  begin
     id 3 
     name ltibia
     direction 0.34202 -0.939693 0   
     length 7.6997   
     axis 0 0 20   XYZ
    dof rx
    limits (-10.0 170.0)
  end
  begin
     id 4 
     name lfoot
     direction 0.100767 -0.276854 0.955614   
     length 2.37556   
     axis -90 7.62852e-016 20   XYZ
    dof rx rz
    limits (-45.0 90.0)
           (-70.0 20.0)
  end
  begin
     id 5 
     name ltoes
     direction 1.53592e-011 -4.21894e-011 1   
     length 1.18363   
     axis -90 7.62852e-016 20   XYZ
    dof rx
    limits (-90.0 20.0)
  end
  begin
     id 6 
     name rhipjoint
     direction -0.556459 -0.742938 0.372017   
     length 2.4012  
     axis 0 0 0  XYZ 
  end
  begin
     id 7 
     name rfemur
     direction -0.34202 -0.939693 0   
     length 7.5119   
     axis 0 0 -20   XYZ
    dof rx ry rz
    limits (-160.0 20.0)
           (-70.0 70.0)
           (-70.0 60.0)
  end
  begin
     id 8 
     name rtibia
     direction -0.34202 -0.939693 0   
     length 7.50155   
     axis 0 0 -20   XYZ
    dof rx
    limits (-10.0 170.0)
 end
 begin
     id 9 
     name rfoot
     direction -0.118427 -0.325376 0.938139   
     length 2.32487  
     axis -90 -7.62852e-016 -20   XYZ
    dof rx rz
    limits (-45.0 90.0)
           (-20.0 70.0)
  end
  begin
     id 10 
     name rtoes
     direction -1.53525e-011 -4.21868e-011 1   
     length 1.15233   
     axis -90 -7.62852e-016 -20   XYZ
    dof rx
    limits (-90.0 20.0)
  end
  begin
     id 11 
     name lowerback
     direction 0.0287568 0.999577 -0.00434502   
     length 2.15243   
     axis 0 0 0   XYZ
    dof rx ry rz
    limits (-20.0 45.0)
           (-30.0 30.0)
           (-30.0 30.0)
  end
  begin
     id 12 
     name upperback
     direction 0.0294009 0.99956 0.00404628   
     length 2.15427   
     axis 0 0 0   XYZ
    dof rx ry rz
    limits (-20.0 45.0)
           (-30.0 30.0)
           (-30.0 30.0)
  end
  begin
     id 13 
     name thorax
     direction 0.0151014 0.999868 0.0059419   
     length 2.14898   
     axis 0 0 0   XYZ
    dof rx ry rz
    limits (-20.0 45.0)
           (-30.0 30.0)
           (-30.0 30.0)
  end
  begin
     id 14 
     name lowerneck
     direction -0.0249197 0.989906 0.139515   
     length 1.6861   
     axis 0 0 0   XYZ
    dof rx ry rz
    limits (-20.0 45.0)
           (-30.0 30.0)
           (-30.0 30.0)
  end
  begin
     id 15 
     name upperneck
     direction 0.0438463 0.988795 -0.142693   
     length 1.71276   
     axis 0 0 0   XYZ
    dof rx ry rz
    limits (-20.0 45.0)
           (-30.0 30.0)
           (-30.0 30.0)
  end
  begin
     id 16
     name head
     direction 0.0148499 0.997845 -0.0639186  
     length 1.7209  
     axis 0 0 0   XYZ
    dof rx ry rz
    limits (-20.0 45.0)
           (-30.0 30.0)
           (-30.0 30.0)
  end
  begin
     id 17 
     name lclavicle
     direction 0.940298 0.323464 -0.105876  
     length 3.9048  
     axis 0 0 0   XYZ
    dof ry rz
    limits (-20.0 10.0)
           (0.0 20.0)
  end
  begin
     id 18 
     name lhumerus
     direction 1 -4.48954e-011 -4.9675e-028   
     length 4.6851   
     axis 180 -30 -90   XYZ
    dof rx ry rz
    limits (-60.0 90.0)
           (-90.0 90.0)
           (-90.0 90.0)
  end
  begin
     id 19
     name lradius
     direction 1 -4.48992e-011 -1.03359e-026   
     length 3.39626   
     axis 180 -30 -90   XYZ
    dof rx
    limits (-10.0 170.0)
  end
  begin
     id 20
     name lwrist
     direction 1 -4.48906e-011 -1.67336e-026   
     length 1.69813   
     axis 9.90442e-015 90 90   XYZ
    dof ry
    limits (-180.0 0.0)
 end
  begin
     id 21 
     name lhand
     direction 1 -4.49006e-011 -3.34673e-026   
     length 0.486078   
     axis 2.1355e-014 90 90   XYZ
    dof rx rz
    limits (-90.0 90.0)
           (-45.0 45.0)
  end
  begin
     id 22 
     name lfingers
     direction 1 -4.48992e-011 -6.69345e-026   
     length 0.391889   
     axis 4.27099e-014 90 90   XYZ
    dof rx
    limits (0.0 90.0)
  end
  begin
     id 23
     name lthumb
     direction 0.707107 -6.34926e-011 0.707107   
     length 0.562676   
     axis -90 45 2.85299e-015   XYZ
    dof rx rz
    limits (-45.0 45.0)
           (-45.0 45.0)
  end
  begin
     id 24 
     name rclavicle
     direction -0.882459 0.414895 -0.221648   
     length 3.44646  
     axis 0 0 0   XYZ 
    dof ry rz
    limits (-10.0 20.0)
           (-20.0 0.0)
  end
  begin
     id 25 
     name rhumerus
     direction -1 -4.48962e-011 -2.37984e-027  
     length 5.55576   
     axis 180 30 90   XYZ
    dof rx ry rz
    limits (-90.0 60.0)
           (-90.0 90.0)
           (-90.0 90.0)
  end
  begin
     id 26 
     name rradius
     direction -1 -4.48982e-011 -6.86791e-027   
     length 3.32774   
     axis 180 30 90   XYZ
    dof rx
    limits (-10.0 170.0)
  end
  begin
     id 27 
     name rwrist
     direction -1 -4.48961e-011 -1.67336e-026   
     length 1.66387   
     axis 9.90442e-015 -90 -90   XYZ
    dof ry
    limits (-180.0 0.0)
  end
  begin
     id 28
     name rhand
     direction -1 -4.4897e-011 -3.34673e-026   
     length 0.507628   
     axis 2.1355e-014 -90 -90   XYZ
    dof rx rz
    limits (-90.0 90.0)
           (-45.0 45.0)
  end
  begin
     id 29
     name rfingers
     direction -1 -4.48854e-011 -6.69345e-026   
     length 0.409263   
     axis 4.27099e-014 -90 -90   XYZ
    dof rx
    limits (0.0 90.0)
  end
  begin
     id 30
     name rthumb
     direction -0.707107 -6.34913e-011 0.707107   
     length 0.587622   
     axis -90 -45 -2.85299e-015   XYZ
    dof rx rz
    limits (-45.0 45.0)
           (-45.0 45.0)
  end
:hierarchy
  begin
    root lhipjoint rhipjoint lowerback
    lhipjoint lfemur
    lfemur ltibia
    ltibia lfoot
    lfoot ltoes
    rhipjoint rfemur
    rfemur rtibia
    rtibia rfoot
    rfoot rtoes
    lowerback upperback
    upperback thorax
    thorax lowerneck lclavicle rclavicle
    lowerneck upperneck
    upperneck head
    lclavicle lhumerus
    lhumerus lradius
    lradius lwrist
    lwrist lhand lthumb
    lhand lfingers
    rclavicle rhumerus
    rhumerus rradius
    rradius rwrist
    rwrist rhand rthumb
    rhand rfingers
  end

#!OML:ASF E:\motion texture\Top Level 1\Subject 1\Session 1\male.ASF
:FULLY-SPECIFIED
:DEGREES
65
root 18.5024 17.4628 5.8043 106.902 -82.4798 -98.9581
lowerback -1.51268 3.01522 5.09574
upperback -1.31002 3.92229 2.14752
thorax -0.308486 1.91356 -0.586944
lowerneck -10.1152 -6.38343 -7.05806
upperneck 7.40795 -8.44254 8.40043
head 4.52987 -3.92154 3.11517
rclavicle 1.47318e-014 1.2424e-015
rhumerus -32.1307 -7.34332 -78.1848
rradius 32.3708
rwrist 8.5938
rhand -13.4257 -27.2919
rfingers 7.12502
rthumb 12.6828 -56.8868
lclavicle 1.47318e-014 1.2424e-015
lhumerus -59.5293 39.8356 39.9875
lradius 14.9501
lwrist -50.4198
lhand -14.2661 19.5496
lfingers 7.12502
lthumb 11.8725 49.193
rfemur 1.25236 4.88535 31.1997
rtibia 33.457
rfoot -10.6857 -6.1098
rtoes -13.6022
lfemur -33.7912 -4.4237 -7.44443
ltibia 23.7298
lfoot 0.239981 2.27621
ltoes -5.3887
66
root 18.3278 17.4807 5.82679 108.289 -82.4771 -100.527
lowerback -1.4632 3.01522 5.12933
upperback -1.31495 3.92645 2.10413
thorax -0.335852 1.91497 -0.652707
lowerneck -10.1365 -6.36712 -6.96789
upperneck 7.66641 -8.44265 8.32867
head 4.60545 -3.91959 3.07564
rclavicle -3.10865e-014 -3.28492e-014
rhumerus -31.9927 -7.60074 -78.0089
rradius 32.7718
rwrist 8.35702
rhand -13.5909 -27.5245
rfingers 7.12502
rthumb 12.5235 -57.1292
lclavicle -3.10865e-014 -3.28492e-014
lhumerus -59.4055 40.5834 39.7556
lradius 14.6957
lwrist -51.6061
lhand -14.2165 19.5962
lfingers 7.12502
lthumb 11.9204 49.2368
rfemur 0.604082 4.40225 30.8288
rtibia 35.4334
rfoot -8.77591 -5.92384
rtoes -13.2015
lfemur -33.2463 -4.19994 -7.79922
ltibia 24.3808
lfoot 0.0472662 1.92506
ltoes -3.92046
67
root 18.1544 17.4992 5.84986 109.689 -82.463 -102.13
lowerback -1.40103 3.00467 5.17138
upperback -1.31307 3.91689 2.07229
thorax -0.364244 1.90948 -0.712095
lowerneck -10.1686 -6.33858 -6.87241
upperneck 7.9377 -8.42542 8.24106
head 4.68454 -3.90941 3.03147
rclavicle -1.31322e-014 1.21383e-014
rhumerus -31.816 -7.74328 -77.8746
rradius 33.1841
rwrist 8.10323
rhand -13.7394 -27.8658
rfingers 7.12502
rthumb 12.3804 -57.4792
lclavicle -1.31322e-014 1.21383e-014
lhumerus -59.152 41.2552 39.7549
lradius 14.4873
lwrist -52.6006
lhand -14.1546 19.6514
lfingers 7.12502
lthumb 11.9801 49.2885
rfemur -0.14228 3.8704 30.4314
rtibia 37.484
rfoot -6.48848 -5.8458
rtoes -12.27
lfemur -32.5813 -3.99986 -8.13489
ltibia 24.8656
lfoot -0.182589 1.64909
ltoes -2.57872
68
root 17.9831 17.518 5.8738 111.469 -82.4869 -104.123
lowerback -1.32259 2.99319 5.16592
upperback -1.30837 3.90819 2.02768
thorax -0.401024 1.90484 -0.759185
lowerneck -10.2175 -6.30078 -6.77007
upperneck 8.21584 -8.39576 8.14939
head 4.76729 -3.89271 2.98556
rclavicle -1.1446e-014 -3.76945e-014
rhumerus -31.594 -7.7733 -77.7882
rradius 33.6061
rwrist 7.85316
rhand -13.806 -28.3432
rfingers 7.12502
rthumb 12.3162 -57.9605
lclavicle -1.1446e-014 -3.76945e-014
lhumerus -58.7331 41.8388 40.0095
lradius 14.3192
lwrist -53.3973
lhand -14.0753 19.7596
lfingers 7.12502
lthumb 12.0565 49.3923
rfemur -0.986871 3.32794 29.9415
rtibia 39.6034
rfoot -3.86267 -5.87221
rtoes -10.5489
lfemur -31.8103 -3.83144 -8.515
ltibia 25.1759
lfoot -0.417569 1.4592
ltoes -1.31846
69
root 17.8142 17.5365 5.89801 113.638 -82.5894 -106.507
lowerback -1.2265 2.97433 5.06428
upperback -1.3072 3.89272 1.96079
thorax -0.456345 1.89748 -0.777263
lowerneck -10.2641 -6.25185 -6.67055
upperneck 8.47525 -8.3509 8.06887
head 4.84355 -3.86837 2.94515
rclavicle 8.20108e-015 -9.35064e-015
rhumerus -31.334 -7.68779 -77.7455
rradius 34.0292
rwrist 7.64548
rhand -13.8555 -28.8026
rfingers 7.12502
rthumb 12.2685 -58.4228
lclavicle 8.20108e-015 -9.35064e-015
lhumerus -58.0417 42.2205 40.689
lradius 14.2072
lwrist -53.8539
lhand -13.9937 19.8532
lfingers 7.12502
lthumb 12.1352 49.4813
rfemur -1.91138 2.78494 29.329
rtibia 41.7675
rfoot -0.969643 -6.00677
rtoes -8.1085
lfemur -30.966 -3.71904 -8.98876
ltibia 25.3374
lfoot -0.671976 1.34204
ltoes -0.144745
70
root 17.6471 17.5547 5.92237 116.424 -82.7749 -109.507
lowerback -1.12476 2.9532 4.85056
upperback -1.3087 3.87618 1.86469
thorax -0.52282 1.89063 -0.76376
lowerneck -10.3115 -6.19826 -6.57581
upperneck 8.71804 -8.29932 7.99957
head 4.91524 -3.84048 2.90975
rclavicle 3.38712e-014 5.34544e-015
rhumerus -31.0343 -7.49022 -77.7465
rradius 34.4619
rwrist 7.46695
rhand -13.9186 -29.1993
rfingers 7.12502
rthumb 12.2075 -58.8231
lclavicle 3.38712e-014 5.34544e-015
lhumerus -57.0591 42.3771 41.8025
lradius 14.1506
lwrist -53.96
lhand -13.8875 19.9943
lfingers 7.12502
lthumb 12.2376 49.6163
rfemur -2.89444 2.26277 28.5851
rtibia 43.9474
rfoot 2.06164 -6.22368
rtoes -4.88975
lfemur -30.0605 -3.64662 -9.58074
ltibia 25.3767
lfoot -0.966288 1.29899
ltoes 0.801519
71
root 17.4827 17.5723 5.9463 119.699 -83.0455 -112.985
lowerback -1.01802 2.91736 4.52525
upperback -1.32084 3.84151 1.73859
thorax -0.608894 1.87554 -0.720045
lowerneck -10.3458 -6.13331 -6.4792
upperneck 8.92881 -8.23252 7.94041
head 4.97431 -3.80523 2.87924
rclavicle -1.65593e-014 -1.17159e-014
rhumerus -30.7054 -7.18799 -77.7917
rradius 34.913
rwrist 7.31726
rhand -13.8202 -29.6785
rfingers 7.12502
rthumb 12.3025 -59.2966
lclavicle -1.65593e-014 -1.17159e-014
lhumerus -55.8286 42.3268 43.2698
lradius 14.1394
lwrist -53.7838
lhand -13.7759 20.1344
lfingers 7.12502
lthumb 12.3452 49.75
rfemur -3.93107 1.74215 27.7247
rtibia 46.1243
rfoot 5.09002 -6.54037
rtoes -1.31896
lfemur -29.1402 -3.61367 -10.2949
ltibia 25.3376
lfoot -1.30825 1.30403
ltoes 1.51348
72
root 17.3202 17.5892 5.96954 123.581 -83.3715 -117.059
lowerback -0.915139 2.86979 4.11128
upperback -1.34118 3.79088 1.58956
thorax -0.705716 1.85329 -0.650661
lowerneck -10.3559 -6.06125 -6.39487
upperneck 9.1022 -8.1558 7.90266
head 5.01871 -3.76534 2.85922
rclavicle -5.88511e-015 1.11816e-015
rhumerus -30.3543 -6.7822 -77.8778
rradius 35.3732
rwrist 7.20735
rhand -13.851 -29.8986
rfingers 7.12502
rthumb 12.2728 -59.5185
lclavicle -5.88511e-015 1.11816e-015
lhumerus -54.3243 41.9978 45.1428
lradius 14.1856
lwrist -53.2557
lhand -13.6652 20.2533
lfingers 7.12502
lthumb 12.4519 49.8624
rfemur -5.00477 1.2355 26.7853
rtibia 48.2769
rfoot 7.90647 -7.0382
rtoes 1.74338
lfemur -28.2142 -3.59459 -11.1127
ltibia 25.2446
lfoot -1.71319 1.33981
ltoes 1.96176
73
root 17.1608 17.6051 5.99146 127.857 -83.7278 -121.507
lowerback -0.823989 2.7999 3.63555
upperback -1.36882 3.70875 1.43251
thorax -0.807497 1.81598 -0.554632
lowerneck -10.3506 -5.98297 -6.31824
upperneck 9.24577 -8.06903 7.87133
head 5.05132 -3.72113 2.844
rclavicle -3.05018e-014 -2.45996e-015
rhumerus -29.9744 -6.28387 -77.9966
rradius 35.8614
rwrist 7.12065
rhand -13.8527 -30.0594
rfingers 7.12502
rthumb 12.2711 -59.6794
lclavicle -3.05018e-014 -2.45996e-015
lhumerus -52.6641 41.4927 47.2313
lradius 14.2663
lwrist -52.5384
lhand -13.5591 20.3686
lfingers 7.12502
lthumb 12.5542 49.9714
rfemur -6.12353 0.721258 25.8184
rtibia 50.3943
rfoot 10.302 -7.76202
rtoes 4.15632
lfemur -27.3166 -3.57664 -11.9935
ltibia 25.1274
lfoot -2.1625 1.35899
ltoes 2.16901
74
root 17.0035 17.6206 6.01213 132.464 -84.0693 -126.279
lowerback -0.747549 2.71358 3.14353
upperback -1.39152 3.60199 1.28326
thorax -0.897375 1.76696 -0.440104
lowerneck -10.3407 -5.9023 -6.25553
upperneck 9.36903 -7.9758 7.84196
head 5.07716 -3.67441 2.83246
rclavicle -7.82715e-016 3.68994e-015
rhumerus -29.5648 -5.71372 -78.1331
rradius 36.3784
rwrist 7.07409
rhand -13.9189 -30.0456
rfingers 7.12502
rthumb 12.2073 -59.6694
lclavicle -7.82715e-016 3.68994e-015
lhumerus -50.892 40.8394 49.4714
lradius 14.3761
lwrist -51.6886
lhand -13.4706 20.483
lfingers 7.12502
lthumb 12.6395 50.0805
rfemur -7.26142 0.19897 24.8783
rtibia 52.459
rfoot 12.1425 -8.74819
rtoes 5.75624
lfemur -26.4226 -3.54331 -12.8856
ltibia 24.9797
lfoot -2.63551 1.35212
ltoes 2.1776
75
root 16.8485 17.6356 6.03092 136.923 -84.3873 -130.895
lowerback -0.675824 2.60423 2.67013
upperback -1.41196 3.46237 1.1564
thorax -0.982264 1.70154 -0.312047
lowerneck -10.3199 -5.82409 -6.21966
upperneck 9.4649 -7.88146 7.82177
head 5.09415 -3.62805 2.82866
rclavicle 2.15712e-015 8.51668e-015
rhumerus -29.1359 -5.09377 -78.2712
rradius 36.9128
rwrist 7.0995
rhand -14.0337 -29.8474
rfingers 7.12502
rthumb 12.0966 -59.4777
lclavicle 2.15712e-015 8.51668e-015
lhumerus -49.0178 39.9989 51.8616
lradius 14.5183
lwrist -50.6935
lhand -13.4265 20.6152
lfingers 7.12502
lthumb 12.682 50.2101
rfemur -8.40996 -0.363762 24.0178
rtibia 54.4575
rfoot 13.3857 -10.0039
rtoes 6.5773
lfemur -25.5425 -3.50629 -13.7395
ltibia 24.8097
lfoot -3.10693 1.30662
ltoes 2.08737
